<?xml version="1.0" encoding="UTF-8"?><svg xmlns="http://www.w3.org/2000/svg" xmlns:xlink="http://www.w3.org/1999/xlink" contentScriptType="application/ecmascript" contentStyleType="text/css" height="242px" preserveAspectRatio="none" style="width:1539px;height:242px;" version="1.1" viewBox="0 0 1539 242" width="1539px" zoomAndPan="magnify">
    <defs>
        <filter height="300%" id="f1om2keb2shjn0" width="300%" x="-1" y="-1">
            <feGaussianBlur result="blurOut" stdDeviation="2.0"/>
            <feColorMatrix in="blurOut" result="blurOut2" type="matrix" values="0 0 0 0 0 0 0 0 0 0 0 0 0 0 0 0 0 0 .4 0"/>
            <feOffset dx="4.0" dy="4.0" in="blurOut2" result="blurOut3"/>
            <feBlend in="SourceGraphic" in2="blurOut3" mode="normal"/>
        </filter>
    </defs>
    <g>
        <!--entity User-->
        <ellipse cx="551" cy="18" fill="#FEFECE" filter="url(#f1om2keb2shjn0)" rx="8" ry="8" style="stroke: #A80036; stroke-width: 2.0;"/>
        <path d="M551,26 L551,53 M538,34 L564,34 M551,53 L538,68 M551,53 L564,68 " fill="#FEFECE" filter="url(#f1om2keb2shjn0)" style="stroke: #A80036; stroke-width: 2.0;"/>
        <text fill="#000000" font-family="sans-serif" font-size="14" lengthAdjust="spacingAndGlyphs" textLength="29" x="536.5" y="89.5332">User</text>
        <ellipse cx="783.2487" cy="50.4517" fill="#FEFECE" filter="url(#f1om2keb2shjn0)" rx="27.7487" ry="15.4517" style="stroke: #A80036; stroke-width: 1.5;"/>
        <text fill="#000000" font-family="sans-serif" font-size="14" lengthAdjust="spacingAndGlyphs" textLength="35" x="765.7487" y="55.7564">Login</text>
        <ellipse cx="45.0624" cy="203.4517" fill="#FEFECE" filter="url(#f1om2keb2shjn0)" rx="39.0624" ry="15.4517" style="stroke: #A80036; stroke-width: 1.5;"/>
        <text fill="#000000" font-family="sans-serif" font-size="14" lengthAdjust="spacingAndGlyphs" textLength="51" x="19.5624" y="208.7564">Get lists</text>
        <ellipse cx="175.033" cy="203.4517" fill="#FEFECE" filter="url(#f1om2keb2shjn0)" rx="56.033" ry="15.4517" style="stroke: #A80036; stroke-width: 1.5;"/>
        <text fill="#000000" font-family="sans-serif" font-size="14" lengthAdjust="spacingAndGlyphs" textLength="75" x="137.533" y="208.7564">Add new list</text>
        <ellipse cx="321.8259" cy="203.4517" fill="#FEFECE" filter="url(#f1om2keb2shjn0)" rx="55.3259" ry="15.4517" style="stroke: #A80036; stroke-width: 1.5;"/>
        <text fill="#000000" font-family="sans-serif" font-size="14" lengthAdjust="spacingAndGlyphs" textLength="74" x="284.8259" y="208.7564">Rename list</text>
        <ellipse cx="467.1188" cy="203.4517" fill="#FEFECE" filter="url(#f1om2keb2shjn0)" rx="54.6188" ry="15.4517" style="stroke: #A80036; stroke-width: 1.5;"/>
        <text fill="#000000" font-family="sans-serif" font-size="14" lengthAdjust="spacingAndGlyphs" textLength="73" x="430.6188" y="208.7564">Remove list</text>
        <ellipse cx="635.9481" cy="203.2896" fill="#FEFECE" filter="url(#f1om2keb2shjn0)" rx="79.4481" ry="18.2896" style="stroke: #A80036; stroke-width: 1.5;"/>
        <text fill="#000000" font-family="sans-serif" font-size="14" lengthAdjust="spacingAndGlyphs" textLength="125" x="573.4481" y="208.5943">Select the active list</text>
        <ellipse cx="844.0017" cy="203.5003" fill="#FEFECE" filter="url(#f1om2keb2shjn0)" rx="93.0017" ry="21.0003" style="stroke: #A80036; stroke-width: 1.5;"/>
        <text fill="#000000" font-family="sans-serif" font-size="14" lengthAdjust="spacingAndGlyphs" textLength="157" x="765.5017" y="208.805">Add item to the active list</text>
        <ellipse cx="1084.7614" cy="203.3523" fill="#FEFECE" filter="url(#f1om2keb2shjn0)" rx="112.2614" ry="24.8523" style="stroke: #A80036; stroke-width: 1.5;"/>
        <text fill="#000000" font-family="sans-serif" font-size="14" lengthAdjust="spacingAndGlyphs" textLength="200" x="984.7614" y="208.657">Remove item from the active list</text>
        <ellipse cx="1382.7585" cy="203.3517" fill="#FEFECE" filter="url(#f1om2keb2shjn0)" rx="149.7585" ry="32.3517" style="stroke: #A80036; stroke-width: 1.5;"/>
        <text fill="#000000" font-family="sans-serif" font-size="14" lengthAdjust="spacingAndGlyphs" textLength="280" x="1242.7585" y="208.6564">Mark/unmark item in the active list as bought</text>
        <path d="M566.222,50.5 C603.355,50.5 699.259,50.5 750.151,50.5 " fill="none" style="stroke: #A80036; stroke-width: 1.0;"/>
        <polygon fill="#A80036" points="755.231,50.5,746.231,46.5,750.231,50.5,746.231,54.5,755.231,50.5" style="stroke: #A80036; stroke-width: 1.0;"/>
        <text fill="#000000" font-family="sans-serif" font-size="13" lengthAdjust="spacingAndGlyphs" textLength="153" x="584.25" y="43.9951">Concurrent logins possible</text>
        <path d="M535.794,54.091 C477.728,64.283 265,104.357 101,171 C89.9772,175.4792 78.4181,181.6943 68.6832,187.4212 " fill="none" style="stroke: #A80036; stroke-width: 1.0;"/>
        <polygon fill="#A80036" points="64.3472,190.0101,74.1252,188.8306,68.6402,187.4468,70.0239,181.9618,64.3472,190.0101" style="stroke: #A80036; stroke-width: 1.0;"/>
        <path d="M535.862,57.332 C491.584,74.424 358.536,126.024 249,171 C235.773,176.4311 221.287,182.5577 208.665,187.9543 " fill="none" style="stroke: #A80036; stroke-width: 1.0;"/>
        <polygon fill="#A80036" points="203.745,190.0614,213.593,190.195,208.3412,188.0929,210.4433,182.8411,203.745,190.0614" style="stroke: #A80036; stroke-width: 1.0;"/>
        <path d="M535.975,61.408 C497.417,86.832 394.658,154.5901 346.963,186.0394 " fill="none" style="stroke: #A80036; stroke-width: 1.0;"/>
        <polygon fill="#A80036" points="342.524,188.9669,352.2398,187.3536,346.6987,186.2152,347.8371,180.6741,342.524,188.9669" style="stroke: #A80036; stroke-width: 1.0;"/>
        <path d="M535.982,78.496 C519.19,108.683 492.417,156.8094 477.649,183.3569 " fill="none" style="stroke: #A80036; stroke-width: 1.0;"/>
        <polygon fill="#A80036" points="475.036,188.0536,482.9073,182.1339,477.4671,183.6844,475.9166,178.2442,475.036,188.0536" style="stroke: #A80036; stroke-width: 1.0;"/>
        <path d="M566.001,78.148 C582.4,107.281 608.373,153.4211 623.644,180.5503 " fill="none" style="stroke: #A80036; stroke-width: 1.0;"/>
        <polygon fill="#A80036" points="626.183,185.0609,625.2538,175.256,623.7303,180.7038,618.2825,179.1803,626.183,185.0609" style="stroke: #A80036; stroke-width: 1.0;"/>
        <path d="M566.34,59.406 C610.266,82.043 737.583,147.6572 803.454,181.6043 " fill="none" style="stroke: #A80036; stroke-width: 1.0;"/>
        <polygon fill="#A80036" points="808.088,183.9927,801.9216,176.3131,803.6439,181.7014,798.2556,183.4237,808.088,183.9927" style="stroke: #A80036; stroke-width: 1.0;"/>
        <text fill="#000000" font-family="sans-serif" font-size="13" lengthAdjust="spacingAndGlyphs" textLength="233" x="725" y="137.4951">Select from existing items or create new</text>
        <path d="M566.423,55.407 C598.294,63.374 673.808,81.695 738,93 C839.092,110.803 870.989,86.689 967,123 C999.191,135.175 1031.29,157.6457 1053.87,175.5994 " fill="none" style="stroke: #A80036; stroke-width: 1.0;"/>
        <polygon fill="#A80036" points="1057.97,178.8956,1053.4552,170.1425,1054.0707,175.7658,1048.4475,176.3813,1057.97,178.8956" style="stroke: #A80036; stroke-width: 1.0;"/>
        <path d="M566.404,55.518 C598.24,63.688 673.694,82.364 738,93 C858.428,112.919 890.495,103.553 1011,123 C1102.53,137.7701 1205.53,160.2472 1279.91,177.5375 " fill="none" style="stroke: #A80036; stroke-width: 1.0;"/>
        <polygon fill="#A80036" points="1285.21,178.7733,1277.3455,172.8446,1280.3391,177.6444,1275.5393,180.638,1285.21,178.7733" style="stroke: #A80036; stroke-width: 1.0;"/>
        <!--
@startuml

User -> (Login) : Concurrent logins possible
User - -> (Get lists)
User - -> (Add new list)
User - -> (Rename list)
User - -> (Remove list)
User - -> (Select the active list)
User - -> (Add item to the active list) : Select from existing items or create new
User - -> (Remove item from the active list)
User - -> (Mark/unmark item in the active list as bought)

@enduml

PlantUML version 2017.11(Wed Apr 19 19:18:59 EEST 2017)
(GPL source distribution)
Java Runtime: Java(TM) SE Runtime Environment
JVM: Java HotSpot(TM) 64-Bit Server VM
Java Version: 1.8.0_131-b11
Operating System: Windows 10
OS Version: 10.0
Default Encoding: Cp1252
Language: en
Country: GB
-->
    </g>
</svg>
